<svg width="420" height="120" viewBox="0 0 420 120" xmlns="http://www.w3.org/2000/svg">
  <defs>
    <linearGradient id="brainGrad" x1="0%" y1="0%" x2="100%" y2="100%">
      <stop offset="0%" stop-color="#5EE6D8"/>
      <stop offset="100%" stop-color="#4A9EFF"/>
    </linearGradient>
  </defs>

  <!-- Brain-circuit icon -->
  <g transform="translate(8,28)">
    <path d="M32 4 C20 4 14 12 14 20 C8 21 4 27 4 33 C4 40 9 45 15 46 C15 52 20 58 28 58 C28 62 32 64 36 64
             C40 64 44 62 44 58 C52 58 57 52 57 46 C63 45 68 40 68 33 C68 27 64 21 58 20 C58 12 52 4 40 4 C38 4 36 5 35 6
             C34 5 33 4 32 4 Z"
          fill="none" stroke="url(#brainGrad)" stroke-width="2.5" stroke-linejoin="round"/>
    <!-- circuit nodes -->
    <circle cx="20" cy="22" r="2.4" fill="#5EE6D8"/>
    <circle cx="34" cy="16" r="2.4" fill="#5EE6D8"/>
    <circle cx="48" cy="24" r="2.4" fill="#4A9EFF"/>
    <circle cx="16" cy="38" r="2.4" fill="#5EE6D8"/>
    <circle cx="30" cy="34" r="2.4" fill="#5EE6D8"/>
    <circle cx="44" cy="40" r="2.4" fill="#4A9EFF"/>
    <circle cx="56" cy="34" r="2.4" fill="#4A9EFF"/>
    <circle cx="24" cy="50" r="2.4" fill="#5EE6D8"/>
    <circle cx="38" cy="52" r="2.4" fill="#4A9EFF"/>
    <!-- circuit traces -->
    <g stroke="#5EE6D8" stroke-width="1.2" opacity="0.85">
      <line x1="20" y1="22" x2="34" y2="16"/>
      <line x1="20" y1="22" x2="30" y2="34"/>
      <line x1="16" y1="38" x2="30" y2="34"/>
      <line x1="30" y1="34" x2="24" y2="50"/>
      <line x1="24" y1="50" x2="38" y2="52"/>
    </g>
    <g stroke="#4A9EFF" stroke-width="1.2" opacity="0.85">
      <line x1="34" y1="16" x2="48" y2="24"/>
      <line x1="48" y1="24" x2="56" y2="34"/>
      <line x1="56" y1="34" x2="44" y2="40"/>
      <line x1="44" y1="40" x2="38" y2="52"/>
      <line x1="30" y1="34" x2="44" y2="40"/>
    </g>
  </g>

  <!-- Wordmark -->
  <text x="92" y="58" font-family="Arial, Helvetica, sans-serif" font-weight="700" font-size="34" letter-spacing="1" fill="#E8ECEF">NEURO</text>
  <text x="92" y="58" font-family="Arial, Helvetica, sans-serif" font-weight="700" font-size="34" letter-spacing="1" fill="#E8ECEF" opacity="0">NEURO</text>
  <text x="206" y="58" font-family="Arial, Helvetica, sans-serif" font-weight="800" font-size="34" letter-spacing="1" fill="#7ED957">FIT</text>
  <text x="258" y="58" font-family="Arial, Helvetica, sans-serif" font-weight="800" font-size="34" letter-spacing="1" fill="#4A9EFF">AI</text>

  <!-- underline accent -->
  <line x1="92" y1="68" x2="296" y2="68" stroke="#4A9EFF" stroke-width="2" opacity="0.5"/>

  <!-- tagline -->
  <text x="92" y="88" font-family="Arial, Helvetica, sans-serif" font-weight="400" font-size="13" letter-spacing="3" fill="#9AA5B1">AI GYM SPOTTER. NEVER LIFT ALONE.</text>
</svg>
